# ProBuilder 4.4.0
# https://unity3d.com/unity/features/worldbuilding/probuilder
# 11/29/2020 5:51:27 AM

mtllib ./Plank_ZPosCap.mtl
o Plank_ZPosCap

g Plank_ZPosCap
v 0.1662054 -0.08303213 0.5
v -0.1662054 -0.08303213 0.5
v 0.1662054 0.08303213 0.5
v -0.1662054 0.08303213 0.5
v -0.1662054 -0.08303213 -0.5
v -0.1662054 0.08303213 -0.5
v 0.1662054 -0.08303213 -0.5
v 0.1662054 0.08303213 -0.5

vt 0.3324108 0
vt 0 0
vt 0.3324108 0.1660643
vt 0 0.1660643
vt 0.2552066 1.001001
vt 0.2552066 0.001000881
vt 0.08914237 1.001001
vt 0.08914237 0.001000881
vt 0.9305931 1
vt 0.9305931 0
vt 0.7645288 1
vt 0.7645288 0
vt 0.6681416 1
vt 1.000552 1
vt 0.6681416 0
vt 1.000552 0

vn 0 0 1
vn -1 0 0
vn 1 0 0
vn 0 1 0
vn 0 -1 0

usemtl WoodenPlanks
f 3/3/1 4/4/1 2/2/1 1/1/1
f 4/7/2 6/8/2 5/6/2 2/5/2
f 8/11/3 3/12/3 1/10/3 7/9/3
f 8/15/4 6/16/4 4/14/4 3/13/4
f 1/14/5 2/13/5 5/15/5 7/16/5

