# ProBuilder 4.4.0
# https://unity3d.com/unity/features/worldbuilding/probuilder
# 11/29/2020 5:51:39 AM

mtllib ./Plank_ZNegCap.mtl
o Plank_ZNegCap

g Plank_ZNegCap
v -0.1662054 -0.08303213 0.5
v -0.1662054 -0.08303213 -0.5
v -0.1662054 0.08303213 0.5
v -0.1662054 0.08303213 -0.5
v 0.1662054 -0.08303213 -0.5
v 0.1662054 0.08303213 -0.5
v 0.1662054 -0.08303213 0.5
v 0.1662054 0.08303213 0.5

vt 0.2552066 1.001001
vt 0.2552066 0.001000881
vt 0.08914237 1.001001
vt 0.08914237 0.001000881
vt 1 0
vt 0.6675892 0
vt 1 0.1660643
vt 0.6675892 0.1660643
vt 0.9305931 1
vt 0.9305931 0
vt 0.7645288 1
vt 0.7645288 0
vt 0.6681416 1
vt 1.000552 1
vt 0.6681416 0
vt 1.000552 0

vn -1 0 0
vn 0 0 -1
vn 1 0 0
vn 0 1 0
vn 0 -1 0

usemtl WoodenPlanks
f 3/3/1 4/4/1 2/2/1 1/1/1
f 4/7/2 6/8/2 5/6/2 2/5/2
f 6/11/3 8/12/3 7/10/3 5/9/3
f 6/15/4 4/16/4 3/14/4 8/13/4
f 7/14/5 1/13/5 2/15/5 5/16/5

