# ProBuilder 4.4.0
# https://unity3d.com/unity/features/worldbuilding/probuilder
# 1/10/2021 6:50:50 PM

mtllib ./Castle_Interior.mtl
o Castle Interior

g Cube (1)
v -11 4 56
v -11 4 18
v -11 23.25 56
v -11 23.25 18
v 13 4 18
v 13 4 56
v 13 23.25 18
v 13 23.25 56
v -2 33.625 18
v -2 4 18
v -2 33.625 56
v 4 4 18
v 4 33.625 18
v 4 33.625 56
v 4 4 21
v 3.625 4 56
v -1.75 4 56
v -2 4 21
v 4 1.5 21
v 4 1.5 18
v -2 1.5 18
v -2 1.5 21
v -2 24.875 56
v -0.9402809 25.875 56
v 2.940281 25.875 56
v 4 24.875 56
v 1 26.5 56
v 4.75 23 56
v -2.75 23 56
v 8.625 18 56
v -6.625 18 56
v 8.625 15.875 56
v 10 15.875 56
v -6.625 15.875 56
v -8.125 15.875 56
v 11.375 13.625 56
v 11.375 4 56
v -9.375 13.5 56
v -9.375 4 56
v 1 18 56
v 3.125 17.5 56
v 3.450424 20.3125 56
v 1 19.5 56
v 6.5 15.375 56
v 3.625 15 56
v 3.625 13.5 56
v 5.75 13.5 56
v -1.375 17.25 56
v -1.450424 20.1875 56
v -4.25 15.375 56
v -3.875 14.625 56
v -1.75 15 56
v -3.875 4 56
v 5.75 4 56
v 3.625 4 56.625
v -1.75 4 56.625
v 11.375 4 56.625
v 5.75 4 56.625
v -3.875 4 56.625
v -9.375 4 56.625

vt -37 0
vt 1 0
vt -37 19.25
vt 1 19.25
vt -1 0
vt 37 0
vt -1 19.25
vt 37 19.25
vt -16 19.25
vt -7 29.625
vt -7 0
vt -16 0
vt -7 -1
vt -16 -1
vt -16 37
vt -7 37
vt 8 0
vt -1 29.625
vt 8 19.25
vt -1 37
vt -1 -1
vt 8 37
vt 8 -1
vt 1 2
vt 1.375 37
vt 6.75 37
vt 7 2
vt 2 0
vt 2 -2.5
vt -1 -2.5
vt -2 0
vt 1 -2.5
vt -2 -2.5
vt 7 29.625
vt 7 20.875
vt 5.940281 21.875
vt 1 29.625
vt 2.059719 21.875
vt 1 20.875
vt 4 22.5
vt -8 19.25
vt 16 19.25
vt 0.25 19
vt 7.75 19
vt -3.625 14
vt 11.625 14
vt -3.625 11.875
vt -5 11.875
vt 11.625 11.875
vt 13.125 11.875
vt -6.375 9.625
vt -6.375 0
vt -8 0
vt 14.375 9.5
vt 16 0
vt 14.375 0
vt 4 14
vt 1.875 13.5
vt 1.549576 16.3125
vt 4 15.5
vt -1.5 11.375
vt 1.375 11
vt 1.375 9.5
vt -0.75 9.5
vt 6.375 13.25
vt 6.450424 16.1875
vt 9.25 11.375
vt 8.875 10.625
vt 6.75 11
vt 8.875 0
vt 6.75 0
vt 1.375 0
vt -0.75 0
vt 1 -1
vt -8 -1
vt -8 37
vt -6.375 37
vt -0.75 37
vt 16 -1
vt 7 -1
vt 14.375 37
vt 16 37
vt 8.875 37
vt 1.375 37.625
vt 6.75 37.625
vt -6.375 37.625
vt -0.75 37.625
vt 8.875 37.625
vt 14.375 37.625

vn 1 0 0
vn -1 0 0
vn 0 0 1
vn 0.7553887 -0.655277 0
vn 0 -1 0
vn -0.7553887 -0.655277 0
vn 0 1 0
vn 0 0 -1

usemtl StoneWall
f 24/36/8 23/35/8 11/34/8
f 26/39/8 25/38/8 14/37/8
f 27/40/8 24/36/8 11/34/8
f 14/37/8 27/40/8 11/34/8
f 14/37/8 25/38/8 27/40/8
f 8/41/8 26/39/8 14/37/8
f 11/34/8 23/35/8 3/42/8
f 26/39/8 8/41/8 28/43/8
f 23/35/8 29/44/8 3/42/8
f 28/43/8 8/41/8 30/45/8
f 29/44/8 31/46/8 3/42/8
f 33/48/8 8/41/8 36/51/8
f 35/50/8 38/54/8 3/42/8
f 30/45/8 41/58/8 40/57/8
f 40/57/8 43/60/8 42/59/8
f 40/57/8 42/59/8 30/45/8
f 42/59/8 28/43/8 30/45/8
f 32/47/8 44/61/8 30/45/8
f 44/61/8 41/58/8 30/45/8
f 41/58/8 44/61/8 45/62/8
f 31/46/8 40/57/8 48/65/8
f 49/66/8 31/46/8 29/44/8
f 40/57/8 31/46/8 49/66/8
f 40/57/8 49/66/8 43/60/8
f 48/65/8 50/67/8 31/46/8
f 50/67/8 34/49/8 31/46/8
f 2/2/1 4/4/1 3/3/1
f 3/3/1 1/1/1 2/2/1
f 6/6/2 8/8/2 7/7/2
f 7/7/2 5/5/2 6/6/2
f 4/9/3 2/12/3 10/11/3
f 10/11/3 9/10/3 4/9/3
f 11/16/4 3/15/4 4/14/4
f 4/14/4 9/13/4 11/16/4
f 13/18/3 12/5/3 5/17/3
f 5/17/3 7/19/3 13/18/3
f 14/20/5 11/16/5 9/13/5
f 9/13/5 13/21/5 14/20/5
f 8/22/6 14/20/6 13/21/6
f 13/21/6 7/23/6 8/22/6
f 19/29/2 15/28/2 12/5/2
f 12/5/2 20/30/2 19/29/2
f 21/32/1 10/2/1 18/31/1
f 18/31/1 22/33/1 21/32/1
f 31/46/8 34/49/8 35/50/8
f 35/50/8 3/42/8 31/46/8
f 33/48/8 32/47/8 30/45/8
f 30/45/8 8/41/8 33/48/8
f 37/52/8 36/51/8 8/41/8
f 8/41/8 6/53/8 37/52/8
f 1/55/8 3/42/8 38/54/8
f 38/54/8 39/56/8 1/55/8
f 46/63/8 45/62/8 44/61/8
f 44/61/8 47/64/8 46/63/8
f 51/68/8 50/67/8 48/65/8
f 48/65/8 52/69/8 51/68/8
f 53/70/8 51/68/8 52/69/8
f 52/69/8 17/71/8 53/70/8
f 16/72/8 46/63/8 47/64/8
f 47/64/8 54/73/8 16/72/8

usemtl StoneCarved
f 5/75/7 12/74/7 15/24/7
f 6/76/7 5/75/7 15/24/7
f 37/77/7 6/76/7 15/24/7
f 54/78/7 15/24/7 16/25/7
f 54/78/7 37/77/7 15/24/7
f 18/27/7 10/80/7 2/79/7
f 2/79/7 1/82/7 18/27/7
f 1/82/7 39/81/7 18/27/7
f 17/26/7 18/27/7 53/83/7
f 18/27/7 39/81/7 53/83/7
f 16/25/7 15/24/7 18/27/7
f 18/27/7 17/26/7 16/25/7
f 55/84/7 16/25/7 17/26/7
f 17/26/7 56/85/7 55/84/7
f 57/86/7 37/77/7 54/78/7
f 54/78/7 58/87/7 57/86/7
f 59/88/7 53/83/7 39/81/7
f 39/81/7 60/89/7 59/88/7

g Cylinder (21)
v -0.3064401 5.001361 44.77023
v -0.3064397 5.125 44.77023
v -0.1193486 5.001361 46.43339
v -0.1193481 5.125 46.43339
v 0.3917953 5.001361 47.65093
v 0.3917957 5.125 47.65093
v 1.090031 5.001361 48.09656
v 1.090031 5.125 48.09656
v 1.788266 5.001361 47.65093
v 1.788266 5.125 47.65093
v 2.299409 5.001361 46.43339
v 2.29941 5.125 46.43339
v 2.486501 5.001361 44.77023
v 2.486502 5.125 44.77023
v 2.299409 5.001361 43.10706
v 2.29941 5.125 43.10706
v 1.788266 5.001361 41.88952
v 1.788266 5.125 41.88952
v 1.090031 5.001361 41.44389
v 1.090031 5.125 41.44389
v 0.3917953 5.001361 41.88952
v 0.3917957 5.125 41.88952
v -0.1193483 5.001361 43.10706
v -0.1193479 5.125 43.10706
v 1.090031 5.001361 44.77023
v 0.008360303 5.004194 44.77023
v 0.1532769 5.004194 46.05846
v 1.090031 5.004194 44.77023
v 0.5491954 5.004194 47.00155
v 1.090031 5.004194 47.34674
v 1.630866 5.004194 47.00155
v 2.026784 5.004194 46.05846
v 2.171701 5.004194 44.77023
v 2.026784 5.004194 43.48199
v 1.630866 5.004194 42.5389
v 1.090031 5.004194 42.19371
v 0.5491954 5.004194 42.5389
v 0.1532769 5.004194 43.48199

vt 22.47873 -5.401217E-07
vt 22.47873 0.1327213
vt 24.27535 -5.401217E-07
vt 24.27535 0.1327213
vt 22.33382 -3.036333E-05
vt 22.33382 0.1326915
vt 23.75131 -3.036333E-05
vt 23.75131 0.1326915
vt 13.78272 0.00049296
vt 13.78272 0.1332148
vt 14.6719 0.00049296
vt 14.6719 0.1332148
vt -13.61502 5.202996E-05
vt -13.61502 0.1327739
vt -12.72584 5.202996E-05
vt -12.72584 0.1327739
vt -23.26598 0.0001750153
vt -23.26598 0.1328969
vt -21.84849 0.0001750153
vt -21.84849 0.1328969
vt -24.13519 1.971843E-05
vt -24.13519 0.1327416
vt -22.33858 1.971843E-05
vt -22.33858 0.1327416
vt -22.81388 2.270216E-06
vt -22.81388 0.1327241
vt -21.01727 2.270216E-06
vt -21.01727 0.1327241
vt -20.04655 1.734813E-05
vt -20.04655 0.1327392
vt -18.62906 1.734813E-05
vt -18.62906 0.1327392
vt -11.71917 -3.507415E-05
vt -11.71917 0.1326868
vt -10.82999 -3.507415E-05
vt -10.82999 0.1326868
vt 9.773102 0.0002385536
vt 9.773103 0.1329604
vt 10.66228 0.0002385536
vt 10.66228 0.1329604
vt 18.14373 2.59641E-05
vt 18.14373 0.1327478
vt 19.56121 2.59641E-05
vt 19.56122 0.1327478
vt 20.87711 1.027583E-05
vt 20.87711 0.1327321
vt 22.67373 1.027583E-05
vt 22.67373 0.1327321
vt -0.8721663 22.71862
vt 0.6268978 22.71862
vt -0.67133 24.50398
vt -0.1226344 25.81096
vt 0.6268978 26.28933
vt 1.376429 25.81096
vt 1.925125 24.50398
vt 2.125962 22.71862
vt 1.925125 20.93327
vt 1.376429 19.62629
vt 0.6268978 19.14791
vt -0.1226344 19.62629
vt -0.6713296 20.93327
vt 0.8817522 22.71328
vt 0.5258593 22.71192
vt 0.3728977 24.09509
vt 0.6842743 24.499
vt -0.61586 22.71626
vt 0.6831455 24.46639
vt 0.3755681 24.05951
vt -0.04548425 25.07353
vt 0.1395531 25.7755
vt -0.620653 22.68668
vt 0.1292292 25.73935
vt -0.04611441 25.03486
vt -0.6259306 25.40659
vt -0.6193318 26.21924
vt -0.6259306 22.64953
vt -0.6328401 26.21417
vt -0.6262405 25.40152
vt -1.206056 25.02979
vt -1.381401 25.73429
vt -0.6262405 22.64446
vt -1.381688 25.76577
vt -1.196649 25.0638
vt -1.617702 24.04977
vt -1.92528 24.45665
vt -0.6214811 22.67695
vt -1.917104 24.49433
vt -1.605726 24.09041
vt -1.758688 22.70725
vt -2.114582 22.7086
vt -0.6169688 22.71158
vt -2.114582 22.71911
vt -1.758688 22.72046
vt -1.605727 21.3373
vt -1.917104 20.93339
vt -0.6169689 22.71613
vt -1.92528 20.90664
vt -1.617702 21.31352
vt -1.19665 20.29949
vt -1.381688 19.59753
vt -0.6214812 22.68634
vt -1.381401 19.55923
vt -1.206056 20.26372
vt -0.6262405 19.89199
vt -0.63284 19.07934
vt -0.6262405 22.64905
vt -0.6193322 19.07427
vt -0.6259307 19.88692
vt -0.04611442 20.25865
vt 0.129229 19.55416
vt -0.6259307 22.64398
vt 0.139553 19.5878
vt -0.04548426 20.28976
vt 0.3755681 21.30379
vt 0.6831452 20.89691
vt -0.620653 22.67661
vt 0.684274 20.92871
vt 0.3728977 21.33262
vt 0.5258594 22.71579
vt 0.8817522 22.71444
vt -0.6158601 22.71146

vn -0.9315618 2.510157E-06 -1.431813E-07
vn -0.9014975 2.65088E-06 0.2347542
vn -0.7124328 -1.215181E-05 0.6002057
vn 9.551197E-07 -6.80222E-06 0.9315618
vn 0.7124323 -1.448058E-05 0.6002063
vn 0.9014976 -6.051416E-06 0.234754
vn 0.9315618 -2.970379E-06 -2.793781E-08
vn 0.9014975 1.347985E-07 -0.2347542
vn 0.7124351 -1.640231E-06 -0.600203
vn -3.293532E-07 9.973872E-06 -0.9315618
vn -0.7124347 5.388867E-06 -0.6002035
vn -0.9014975 4.627913E-06 -0.2347541
vn 0 -0.9315618 0
vn 0.3337578 0.8697201 4.515102E-08
vn 0.2924176 0.881588 -0.07142788
vn 0 0.9315618 0
vn 0.1728819 0.9065619 -0.1267464
vn 2.14174E-06 0.9197018 -0.1481753
vn -0.1728842 0.9065617 -0.1267451
vn -0.2924179 0.8815878 -0.07142866
vn -0.3337575 0.8697203 4.68876E-08
vn -0.2924174 0.881588 0.07142788
vn -0.1728828 0.9065619 0.1267452
vn 6.976351E-09 0.9197021 0.148174
vn 0.1728852 0.9065614 0.1267457
vn 0.292419 0.8815874 0.07142898

usemtl plate
f 61/138/21 85/139/21 63/140/21
f 63/140/21 85/139/21 65/141/21
f 65/141/21 85/139/21 67/142/21
f 67/142/21 85/139/21 69/143/21
f 69/143/21 85/139/21 71/144/21
f 71/144/21 85/139/21 73/145/21
f 73/145/21 85/139/21 75/146/21
f 75/146/21 85/139/21 77/147/21
f 77/147/21 85/139/21 79/148/21
f 79/148/21 85/139/21 81/149/21
f 81/149/21 85/139/21 83/150/21
f 83/150/21 85/139/21 61/138/21
f 87/153/24 88/155/24 86/152/24
f 89/158/24 88/160/24 87/157/24
f 90/163/24 88/165/24 89/162/24
f 91/168/24 88/170/24 90/167/24
f 92/173/24 88/175/24 91/172/24
f 93/178/24 88/180/24 92/177/24
f 94/183/24 88/185/24 93/182/24
f 95/188/24 88/190/24 94/187/24
f 96/193/24 88/195/24 95/192/24
f 97/198/24 88/200/24 96/197/24
f 98/203/24 88/205/24 97/202/24
f 86/208/24 88/210/24 98/207/24
f 64/93/10 62/91/9 61/90/9
f 61/90/9 63/92/10 64/93/10
f 66/97/11 64/95/10 63/94/10
f 63/94/10 65/96/11 66/97/11
f 68/101/12 66/99/11 65/98/11
f 65/98/11 67/100/12 68/101/12
f 70/105/13 68/103/12 67/102/12
f 67/102/12 69/104/13 70/105/13
f 72/109/14 70/107/13 69/106/13
f 69/106/13 71/108/14 72/109/14
f 74/113/15 72/111/14 71/110/14
f 71/110/14 73/112/15 74/113/15
f 76/117/16 74/115/15 73/114/15
f 73/114/15 75/116/16 76/117/16
f 78/121/17 76/119/16 75/118/16
f 75/118/16 77/120/17 78/121/17
f 80/125/18 78/123/17 77/122/17
f 77/122/17 79/124/18 80/125/18
f 82/129/19 80/127/18 79/126/18
f 79/126/18 81/128/19 82/129/19
f 84/133/20 82/131/19 81/130/19
f 81/130/19 83/132/20 84/133/20
f 62/137/9 84/135/20 83/134/20
f 83/134/20 61/136/9 62/137/9
f 64/154/23 87/153/23 86/152/22
f 86/152/22 62/151/22 64/154/23
f 66/159/25 89/158/25 87/157/23
f 87/157/23 64/156/23 66/159/25
f 68/164/26 90/163/26 89/162/25
f 89/162/25 66/161/25 68/164/26
f 70/169/27 91/168/27 90/167/26
f 90/167/26 68/166/26 70/169/27
f 72/174/28 92/173/28 91/172/27
f 91/172/27 70/171/27 72/174/28
f 72/176/28 74/179/29 93/178/29
f 93/178/29 92/177/28 72/176/28
f 74/181/29 76/184/30 94/183/30
f 94/183/30 93/182/29 74/181/29
f 76/186/30 78/189/31 95/188/31
f 95/188/31 94/187/30 76/186/30
f 78/191/31 80/194/32 96/193/32
f 96/193/32 95/192/31 78/191/31
f 96/197/32 80/196/32 82/199/33
f 82/199/33 97/198/33 96/197/32
f 82/201/33 84/204/34 98/203/34
f 98/203/34 97/202/33 82/201/33
f 86/208/22 98/207/34 84/206/34
f 84/206/34 62/209/22 86/208/22

g Cube
v 4 0 3
v -2 0 3
v 4 0 18
v -2 0 18
v -2 14.25 3
v -2 14.25 18
v -2 15.25 2
v -2 15.25 18
v 4 14.25 18
v 4 14.25 3
v 4 15.25 18
v 4 15.25 2
v 4 18.875 2
v 4 18.875 18
v -2 18.875 18
v -2 18.875 2

vt 0 -1
vt 6 -1
vt 0 14
vt 6 14
vt -14 0
vt 1 0
vt 1 14.25
vt -14 14.25
vt 2 15.25
vt -14 15.25
vt -1 0
vt 14 0
vt 14 14.25
vt -1 14.25
vt 14 15.25
vt -2 15.25
vt -2 18.875
vt 14 18.875
vt -14 18.875
vt 2 18.875

vn 0 1 0
vn 1 0 0
vn -1 0 0

usemtl StoneWall
f 100/216/36 103/217/36 104/218/36 102/215/36
f 103/217/36 105/219/36 106/220/36 104/218/36
f 107/223/37 108/224/37 99/221/37 101/222/37
f 109/225/37 110/226/37 108/224/37 107/223/37
f 110/226/37 109/225/37 112/228/37 111/227/37
f 106/220/36 105/219/36 114/230/36 113/229/36

usemtl StoneCarved
f 99/211/35 100/212/35 102/214/35 101/213/35

