# ProBuilder 4.4.0
# https://unity3d.com/unity/features/worldbuilding/probuilder
# 2/19/2022 11:56:05 PM

mtllib ./Tree.mtl
o Tree

g Tree
v -1.518677 -0.4423263 -1.54281E-06
v -0.948212 -0.1480987 -1.54281E-06
v -0.4800418 -0.4423263 1.798966
v -0.1948093 -0.1480987 1.304926
v 1.597221 -0.4423263 1.798966
v 1.311989 -0.1480987 1.304926
v 2.635856 -0.4423263 -1.54281E-06
v 2.065391 -0.1480987 -1.54281E-06
v 1.597221 -0.4423263 -1.798967
v 1.311989 -0.1480987 -1.304929
v -0.4800418 -0.4423263 -1.798967
v -0.1948093 -0.1480987 -1.304929
v -0.3773349 0.3722489 -1.54281E-06
v 0.09062929 0.3722489 0.810532
v 1.02655 0.3722489 0.810532
v 1.494514 0.3722489 -1.54281E-06
v 1.02655 0.3722489 -0.8105332
v 0.09062929 0.3722489 -0.8105332
v -0.1109546 0.9813874 -1.54281E-06
v 0.2238156 0.9813874 0.579842
v 0.8933637 0.9813874 0.579842
v 1.228134 0.9813874 -1.54281E-06
v 0.8933637 0.9813874 -0.5798451
v 0.2238156 0.9813874 -0.5798451
v -0.04780608 1.816951 -1.54281E-06
v 0.2553937 1.816951 0.5251526
v 0.8617856 1.816951 0.5251526
v 1.164985 1.816951 -1.54281E-06
v 0.8617856 1.816951 -0.5251557
v 0.2553937 1.816951 -0.5251557
v 0.0968091 4.188212 -1.54281E-06
v 0.3276975 4.188212 0.3999161
v 0.7894818 4.188212 0.3999142
v 1.02037 4.188212 -1.54281E-06
v 0.7894818 4.188212 -0.3999172
v 0.3276975 4.188212 -0.3999172
v -2.916312E-07 42.54655 -1.54281E-06
v 0.2792966 42.54655 0.4837517
v 0.8378827 42.54655 0.4837517
v 1.11718 42.54655 -1.54281E-06
v 0.8378827 42.54655 -0.4837548
v 0.2792966 42.54655 -0.4837548

vt 10.18942 4.412149
vt 8.790298 4.412149
vt 7.642063 8.824303
vt 6.942501 7.612619
vt 2.547361 8.824303
vt 3.246923 7.612619
vt 0 4.412149
vt 1.399125 4.412149
vt 2.547361 0
vt 3.246923 1.211678
vt 7.642063 0
vt 6.942501 1.211678
vt 7.390163 4.412149
vt 6.242433 6.400066
vt 0 0
vt 0.7000675 1.276206
vt 3.695578 0
vt 2.99551 1.276206
vt 3.94699 6.400066
vt 2.79926 4.412149
vt 3.94699 2.424236
vt 6.242433 2.424236
vt 1.987914 0
vt 1.987915 1.493975
vt 3.97583 0
vt 3.410042 1.493975
vt 1.026721 2.770182
vt 2.668857 2.770182
vt 0.5657881 1.493975
vt 1.987915 3.543282
vt 3.27591 3.543282
vt 1.104169 4.819488
vt 2.591408 4.819488
vt 0.6999196 3.543282
vt 1.987915 9.359046
vt 2.968752 9.359046
vt 1.281502 10.63525
vt 2.414076 10.63525
vt 1.00708 9.359046
vt 1.987914 103.4368
vt 3.17437 103.4368
vt 1.162794 104.7131
vt 2.532784 104.7131
vt 0.8014602 103.4368

vn -0.4583893 0.8887514 -1.387276E-07
vn -0.5689555 0.8223683 -2.691555E-07
vn -0.2291943 0.8887519 0.396976
vn -0.2844773 0.8223684 0.4927299
vn 0.2291942 0.888752 0.3969758
vn 0.2844776 0.8223684 0.4927299
vn 0.4583893 0.8887516 -1.387276E-07
vn 0.5689557 0.8223682 1.187451E-07
vn 0.2291945 0.8887514 -0.396977
vn 0.2844773 0.8223684 -0.49273
vn -0.2291944 0.8887515 -0.3969769
vn -0.2844774 0.8223685 -0.4927298
vn -0.809445 0.5871957 8.389447E-09
vn -0.4047225 0.587195 0.7010005
vn 0.4047225 0.5871941 0.7010012
vn 0.8094448 0.5871959 -6.37598E-07
vn 0.4047223 0.5871949 -0.7010008
vn -0.4047224 0.5871937 -0.7010016
vn -0.9700109 0.2430612 1.295134E-07
vn -0.4850065 0.2430601 0.8400538
vn 0.4850062 0.2430619 0.8400535
vn 0.970011 0.243061 -2.849294E-07
vn 0.4850066 0.243059 -0.8400541
vn -0.4850061 0.243061 -0.8400538
vn -0.9976771 0.06812042 2.493528E-07
vn -0.4988384 0.0681209 0.8640137
vn 0.4988385 0.06812013 0.8640138
vn 0.9976771 0.06812045 -2.837463E-07
vn 0.4988382 0.06812121 -0.8640139
vn -0.498838 0.06812023 -0.864014
vn -0.9995737 0.02919649 -7.831004E-07
vn -0.4997877 0.02919593 0.8656557
vn 0.4997897 0.0291965 0.8656545
vn 0.9995737 0.02919659 0
vn 0.4997884 0.02919611 -0.8656553
vn -0.4997884 0.02919647 -0.8656553
vn -0.9999968 -0.002523771 -2.684193E-06
vn -0.4999963 -0.002523687 0.8660238
vn 0.4999991 -0.002523746 0.8660223
vn 0.9999968 -0.002523781 2.185209E-06
vn 0.4999971 -0.002523716 -0.8660234
vn -0.499999 -0.002523745 -0.8660223

usemtl GhostWorld_Tree
f 3/3/3 4/4/4 2/2/2 1/1/1
f 5/5/5 6/6/6 4/4/4 3/3/3
f 7/7/7 8/8/8 6/6/6 5/5/5
f 9/9/9 10/10/10 8/8/8 7/7/7
f 11/11/11 12/12/12 10/10/10 9/9/9
f 1/1/1 2/2/2 12/12/12 11/11/11
f 4/4/4 14/14/14 13/13/13 2/2/2
f 6/17/6 15/18/15 14/16/14 4/15/4
f 8/8/8 16/20/16 15/19/15 6/6/6
f 10/10/10 17/21/17 16/20/16 8/8/8
f 12/17/12 18/18/18 17/16/17 10/15/10
f 2/2/2 13/13/13 18/22/18 12/12/12
f 14/25/14 20/26/20 19/24/19 13/23/13
f 15/18/15 21/28/21 20/27/20 14/16/14
f 16/23/16 22/24/22 21/29/21 15/15/15
f 17/25/17 23/26/23 22/24/22 16/23/16
f 18/18/18 24/28/24 23/27/23 17/16/17
f 13/23/13 19/24/19 24/29/24 18/15/18
f 20/26/20 26/31/26 25/30/25 19/24/19
f 21/28/21 27/33/27 26/32/26 20/27/20
f 22/24/22 28/30/28 27/34/27 21/29/21
f 23/26/23 29/31/29 28/30/28 22/24/22
f 24/28/24 30/33/30 29/32/29 23/27/23
f 19/24/19 25/30/25 30/34/30 24/29/24
f 26/31/26 32/36/32 31/35/31 25/30/25
f 27/33/27 33/38/33 32/37/32 26/32/26
f 28/30/28 34/35/34 33/39/33 27/34/27
f 29/31/29 35/36/35 34/35/34 28/30/28
f 30/33/30 36/38/36 35/37/35 29/32/29
f 25/30/25 31/35/31 36/39/36 30/34/30
f 32/36/32 38/41/38 37/40/37 31/35/31
f 33/38/33 39/43/39 38/42/38 32/37/32
f 34/35/34 40/40/40 39/44/39 33/39/33
f 35/36/35 41/41/41 40/40/40 34/35/34
f 36/38/36 42/43/42 41/42/41 35/37/35
f 31/35/31 37/40/37 42/44/42 36/39/36

